Coordinates
version=1
nRows=16
nColumns=40
inDegrees=yes

Units are S.I. units (second, meters, Newtons, ...)
If the header above contains a line with 'inDegrees', this indicates whether rotational values are in degrees (yes) or radians (no).

endheader
time	pelvis_tilt	pelvis_list	pelvis_rotation	pelvis_tx	pelvis_ty	pelvis_tz	hip_flexion_r	hip_adduction_r	hip_rotation_r	knee_angle_r	knee_angle_r_beta	ankle_angle_r	subtalar_angle_r	mtp_angle_r	hip_flexion_l	hip_adduction_l	hip_rotation_l	knee_angle_l	knee_angle_l_beta	ankle_angle_l	subtalar_angle_l	mtp_angle_l	lumbar_extension	lumbar_bending	lumbar_rotation	arm_flex_r	arm_add_r	arm_rot_r	elbow_flex_r	pro_sup_r	wrist_flex_r	wrist_dev_r	arm_flex_l	arm_add_l	arm_rot_l	elbow_flex_l	pro_sup_l	wrist_flex_l	wrist_dev_l
      4.26000000	      0.88095671	      8.67768502	    -89.10794351	      0.26480330	      0.86646636	      1.05355918	     -7.15402679	     -4.74209366	    -13.92420397	     23.28346617	      0.40637315	    -18.30724034	      0.00000000	      0.00000000	     22.35898804	      2.41588327	     -3.06639482	     13.61714390	      0.23766400	     -5.68133985	      0.00000000	      0.00000000	      1.98845573	     -2.01696938	      1.39095807	     -3.86116491	     -6.27909411	      6.62802871	     36.89356652	     89.12507994	    -27.06305764	      1.69819293	     -6.61226514	     -9.50658441	      3.56129177	     41.67609855	     89.28049206	    -20.97487029	      1.31848193
      4.27000000	      0.84811546	      8.80583872	    -89.12100636	      0.26620427	      0.86674236	      1.05758523	     -7.01544979	     -4.92839893	    -14.09808240	     23.60433946	      0.41197344	    -18.97922338	      0.00000000	      0.00000000	     22.15121254	      2.49553865	     -3.03023475	     13.53692761	      0.23626396	     -5.40284481	      0.00000000	      0.00000000	      2.06963388	     -1.93965969	      1.36647942	     -3.62697062	     -6.29040066	      6.62742688	     37.33685636	     89.13131544	    -27.04091717	      1.64268420	     -6.46633525	     -9.58334751	      3.66396090	     41.83691190	     89.28830719	    -20.92793496	      1.38544752
      4.28000000	      0.81408934	      8.93512469	    -89.12945565	      0.26759185	      0.86698634	      1.06156259	     -6.87220698	     -5.10928488	    -14.26965099	     23.92608193	      0.41758891	    -19.63877205	      0.00000000	      0.00000000	     21.94462738	      2.56882468	     -2.99133009	     13.45320711	      0.23480276	     -5.12928629	      0.00000000	      0.00000000	      2.15718857	     -1.86145228	      1.34180297	     -3.39784790	     -6.30640057	      6.63458958	     37.79990169	     89.13618651	    -27.01423934	      1.58845080	     -6.31306715	     -9.65381133	      3.76423336	     41.98972995	     89.29381929	    -20.88218896	      1.45052249
      4.29000000	      0.77707657	      9.06676656	    -89.13947336	      0.26896230	      0.86722295	      1.06548017	     -6.72273106	     -5.28260338	    -14.42807985	     24.23986399	      0.42306544	    -20.26999708	      0.00000000	      0.00000000	     21.74649874	      2.64045059	     -2.95119390	     13.36817745	      0.23331871	     -4.86660672	      0.00000000	      0.00000000	      2.24414699	     -1.77697457	      1.32501017	     -3.16622670	     -6.31881806	      6.63785849	     38.27477917	     89.13970742	    -26.98411267	      1.53901082	     -6.16080258	     -9.72345759	      3.85960287	     42.13530329	     89.29584058	    -20.83680100	      1.51721148
      4.30000000	      0.73820108	      9.19819499	    -89.14786669	      0.27030594	      0.86745426	      1.06932539	     -6.56102227	     -5.44826931	    -14.56906578	     24.56269190	      0.42869985	    -20.88422322	      0.00000000	      0.00000000	     21.55133789	      2.70744754	     -2.90941852	     13.28197561	      0.23181421	     -4.60926333	      0.00000000	      0.00000000	      2.33108030	     -1.69329249	      1.30587402	     -2.94015844	     -6.32944285	      6.63571761	     38.76640341	     89.14297357	    -26.95038727	      1.49426332	     -6.00925519	     -9.78737867	      3.95172903	     42.28384931	     89.29711200	    -20.79058666	      1.58571402
      4.31000000	      0.69695388	      9.32550538	    -89.14322460	      0.27165641	      0.86765088	      1.07314330	     -6.39633799	     -5.60186765	    -14.67549294	     24.90722656	      0.43471311	    -21.46762854	      0.00000000	      0.00000000	     21.35436571	      2.77444992	     -2.87187834	     13.19607322	      0.23031493	     -4.36167092	      0.00000000	      0.00000000	      2.41956453	     -1.60917476	      1.27614777	     -2.72377348	     -6.34384879	      6.63344642	     39.26441781	     89.14825568	    -26.91586715	      1.45102529	     -5.87304240	     -9.85501784	      4.03455121	     42.43568926	     89.30426374	    -20.74737177	      1.64803311
      4.32000000	      0.66138698	      9.45834950	    -89.16854178	      0.27294000	      0.86783507	      1.07687955	     -6.20340337	     -5.77167538	    -14.79301815	     25.26344047	      0.44093022	    -22.06938883	      0.00000000	      0.00000000	     21.17444213	      2.83700682	     -2.81678220	     13.12023964	      0.22899138	     -4.10255457	      0.00000000	      0.00000000	      2.50451909	     -1.53051499	      1.28466709	     -2.52171764	     -6.35559402	      6.60662057	     39.78784597	     89.14690012	    -26.87350681	      1.42298706	     -5.72445800	     -9.91322635	      4.10511034	     42.60767679	     89.29380545	    -20.69790154	      1.72576914
      4.33000000	      0.62692021	      9.59268403	    -89.17679789	      0.27422038	      0.86798188	      1.08053640	     -6.00378655	     -5.92594462	    -14.87761274	     25.62704419	      0.44727630	    -22.62082613	      0.00000000	      0.00000000	     21.00746069	      2.90387159	     -2.76905296	     13.05337102	      0.22782430	     -3.85489172	      0.00000000	      0.00000000	      2.59279520	     -1.45447900	      1.27882891	     -2.31411566	     -6.35252483	      6.56244365	     40.31372320	     89.14851880	    -26.82447649	      1.40812687	     -5.59037851	     -9.97085887	      4.16126969	     42.78502398	     89.28939303	    -20.64439462	      1.80977336
      4.34000000	      0.59262532	      9.71758130	    -89.17359782	      0.27548015	      0.86811788	      1.08415471	     -5.80203552	     -6.07022701	    -14.91636373	     26.01734338	      0.45408830	    -23.12016030	      0.00000000	      0.00000000	     20.83696734	      2.97231875	     -2.73392489	     12.98686041	      0.22666347	     -3.62005412	      0.00000000	      0.00000000	      2.67022507	     -1.37932324	      1.24255493	     -2.10945118	     -6.34186703	      6.53476674	     40.82786138	     89.15544267	    -26.77560372	      1.38897536	     -5.47373017	    -10.02937987	      4.20452235	     42.97648350	     89.29767461	    -20.59604824	      1.87567134
      4.35000000	      0.57317919	      9.85579594	    -89.20616926	      0.27666867	      0.86819921	      1.08765028	     -5.56117629	     -6.23966531	    -14.98441322	     26.42396502	      0.46118519	    -23.63183912	      0.00000000	      0.00000000	     20.69708972	      3.04188370	     -2.67767805	     12.94766424	      0.22597937	     -3.36470447	      0.00000000	      0.00000000	      2.75669937	     -1.32680233	      1.26471630	     -1.91920232	     -6.32885810	      6.46396736	     41.36747165	     89.15359185	    -26.70824201	      1.40024831	     -5.35291929	    -10.07762367	      4.20985552	     43.19883295	     89.28785259	    -20.53415478	      1.96850955
      4.36000000	      0.57373672	     10.04527511	    -89.21385204	      0.27788658	      0.86815267	      1.09116653	     -5.28771570	     -6.41065717	    -15.04871022	     26.80829143	      0.46789295	    -24.08032588	      0.00000000	      0.00000000	     20.63892194	      3.14691519	     -2.64171038	     12.96302595	      0.22624748	     -3.09972040	      0.00000000	      0.00000000	      2.92722921	     -1.28824317	      1.24357635	     -1.76686164	     -6.27281033	      6.26935360	     41.93002568	     89.15690789	    -26.56185650	      1.52145549	     -5.26707056	    -10.11745815	      4.15323777	     43.39947304	     89.29032082	    -20.40341354	      2.17577340
      4.37000000	      0.52361880	     10.13680945	    -89.21800439	      0.27902674	      0.86823901	      1.09452325	     -5.05896891	     -6.52819159	    -15.03476445	     27.28682873	      0.47624500	    -24.48517413	      0.00000000	      0.00000000	     20.44760129	      3.18164696	     -2.59242653	     12.88503599	      0.22488630	     -2.89651637	      0.00000000	      0.00000000	      2.94818983	     -1.21690600	      1.20536099	     -1.54515126	     -6.28091944	      6.31493482	     42.40379570	     89.16677046	    -26.48332151	      1.49764988	     -5.17712028	    -10.20034573	      4.19166589	     43.67720637	     89.29131085	    -20.34109796	      2.20056902
      4.38000000	      0.51671522	     10.23860872	    -89.23789574	      0.28015567	      0.86826820	      1.09782429	     -4.82196153	     -6.69356120	    -15.06663571	     27.75236085	      0.48437007	    -24.92115808	      0.00000000	      0.00000000	     20.29201361	      3.26487935	     -2.54686732	     12.85793009	      0.22441321	     -2.65321126	      0.00000000	      0.00000000	      2.98436792	     -1.18276097	      1.19343569	     -1.35573225	     -6.26789823	      6.29725382	     42.89537204	     89.16942619	    -26.40669935	      1.48465679	     -5.08644437	    -10.26421829	      4.14917355	     43.93582382	     89.29357384	    -20.28377040	      2.23917952
      4.39000000	      0.50631283	     10.33046587	    -89.25138890	      0.28121793	      0.86830615	      1.10111192	     -4.59892533	     -6.84136752	    -15.09253795	     28.20730597	      0.49231036	    -25.32129521	      0.00000000	      0.00000000	     20.12758442	      3.33840192	     -2.52309485	     12.82676002	      0.22386919	     -2.42579725	      0.00000000	      0.00000000	      3.02163090	     -1.15037604	      1.14874541	     -1.15598958	     -6.22719534	      6.27807752	     43.36530934	     89.17275141	    -26.33972236	      1.46372237	     -5.02375190	    -10.31796082	      4.12459120	     44.18208691	     89.29364406	    -20.23298619	      2.26555075
      4.40000000	      0.50254217	     10.42093640	    -89.26700497	      0.28227336	      0.86830631	      1.10435108	     -4.37988210	     -6.99847064	    -15.15567853	     28.65819821	      0.50017992	    -25.71807472	      0.00000000	      0.00000000	     19.97306340	      3.41836741	     -2.48540465	     12.81353224	      0.22363833	     -2.19601461	      0.00000000	      0.00000000	      3.05552401	     -1.12598131	      1.11897987	     -0.97777733	     -6.19741913	      6.24402349	     43.82087616	     89.17636778	    -26.27020657	      1.44702974	     -4.95819865	    -10.38476401	      4.08001759	     44.42690234	     89.29763087	    -20.18437993	      2.29120980
      4.41000000	      0.49456314	     10.50156709	    -89.27364753	      0.28328057	      0.86830402	      1.10756750	     -4.18429405	     -7.13688677	    -15.22799822	     29.08625671	      0.50765095	    -26.09038165	      0.00000000	      0.00000000	     19.81352016	      3.49248528	     -2.45861797	     12.80102634	      0.22342006	     -1.98050489	      0.00000000	      0.00000000	      3.09480651	     -1.10864668	      1.08333869	     -0.80299191	     -6.15255696	      6.21632999	     44.24595450	     89.17896885	    -26.20163090	      1.42993875	     -4.90117390	    -10.43404865	      4.05106706	     44.64950298	     89.29880542	    -20.13854495	      2.31227310
